<svg xmlns="http://www.w3.org/2000/svg" width="16.698" height="16.722" viewBox="0 0 16.698 16.722">
  <g id="Group_2719" data-name="Group 2719" transform="translate(0 0)">
    <g id="Group_2718" data-name="Group 2718" transform="translate(0 0)">
      <path id="Path_7798" data-name="Path 7798" d="M13.649,134.791a1.645,1.645,0,0,0-1.193-.547,1.7,1.7,0,0,0-1.207.544L10.134,135.9c-.092-.049-.184-.1-.272-.141-.127-.063-.247-.124-.349-.187a12.122,12.122,0,0,1-2.9-2.647,7.151,7.151,0,0,1-.953-1.5c.289-.265.558-.54.819-.8.1-.1.2-.2.3-.3a1.619,1.619,0,0,0,0-2.442l-.964-.963c-.109-.109-.222-.222-.328-.335-.212-.219-.434-.445-.664-.656a1.671,1.671,0,0,0-1.182-.519,1.729,1.729,0,0,0-1.2.519l-.007.007-1.2,1.211a2.582,2.582,0,0,0-.766,1.641A6.187,6.187,0,0,0,.911,131.4a15.2,15.2,0,0,0,2.7,4.5,16.609,16.609,0,0,0,5.53,4.331,8.617,8.617,0,0,0,3.106.918c.074,0,.152.007.222.007a2.659,2.659,0,0,0,2.036-.875c0-.007.011-.011.014-.018a8.029,8.029,0,0,1,.618-.639c.152-.145.307-.3.459-.455a1.761,1.761,0,0,0,.533-1.221,1.7,1.7,0,0,0-.544-1.211Zm1.263,3.716s0,0,0,0c-.138.148-.279.282-.431.431a9.278,9.278,0,0,0-.681.706,1.7,1.7,0,0,1-1.327.561c-.053,0-.109,0-.162,0a7.655,7.655,0,0,1-2.753-.826,15.678,15.678,0,0,1-5.209-4.08,14.329,14.329,0,0,1-2.541-4.232,5.039,5.039,0,0,1-.4-2.209,1.62,1.62,0,0,1,.487-1.048l1.2-1.2a.8.8,0,0,1,.536-.251.755.755,0,0,1,.515.247l.011.011c.215.2.42.409.635.632.109.113.222.226.335.342l.963.964a.674.674,0,0,1,0,1.094c-.1.1-.2.2-.3.3-.3.3-.579.586-.886.861-.007.007-.014.011-.018.018a.72.72,0,0,0-.184.8l.011.032a7.735,7.735,0,0,0,1.14,1.86l0,0A12.954,12.954,0,0,0,9,136.372a4.813,4.813,0,0,0,.434.236c.127.064.247.124.349.187.014.007.028.018.042.025a.765.765,0,0,0,.349.088.755.755,0,0,0,.536-.244l1.207-1.207a.8.8,0,0,1,.533-.265.719.719,0,0,1,.508.258l.007.007,1.945,1.945A.7.7,0,0,1,14.912,138.507Z" transform="translate(-0.445 -124.432)" fill="#291f6e"/>
      <path id="Path_7799" data-name="Path 7799" d="M316.778,201.932a4.542,4.542,0,0,1,3.7,3.7.473.473,0,0,0,.469.4.63.63,0,0,0,.081-.007.477.477,0,0,0,.392-.551,5.492,5.492,0,0,0-4.475-4.475.479.479,0,0,0-.551.388A.471.471,0,0,0,316.778,201.932Z" transform="translate(-307.753 -197.954)" fill="#291f6e"/>
      <path id="Path_7800" data-name="Path 7800" d="M329.258,97.377a9.044,9.044,0,0,0-7.369-7.369.476.476,0,1,0-.155.939,8.078,8.078,0,0,1,6.586,6.586.474.474,0,0,0,.469.4.631.631,0,0,0,.081-.007A.468.468,0,0,0,329.258,97.377Z" transform="translate(-312.567 -90)" fill="#291f6e"/>
    </g>
  </g>
</svg>
