<svg xmlns="http://www.w3.org/2000/svg" width="19.974" height="13.5" viewBox="0 0 19.974 13.5">
  <g id="Group_2726" data-name="Group 2726" transform="translate(0 0)">
    <g id="Group_2721" data-name="Group 2721" transform="translate(4.969 0)">
      <g id="Group_2720" data-name="Group 2720" transform="translate(0 0)">
        <path id="Path_7801" data-name="Path 7801" d="M152.635,189.186h0a.39.39,0,1,0,0,.78h0a.39.39,0,0,0,0-.78Z" transform="translate(-152.24 -189.186)" fill="#291f6e"/>
      </g>
    </g>
    <g id="Group_2723" data-name="Group 2723" transform="translate(0 0)">
      <g id="Group_2722" data-name="Group 2722" transform="translate(0 0)">
        <path id="Path_7802" data-name="Path 7802" d="M18.413,189.186H7.1a.39.39,0,0,0,0,.78H18.413c.02,0,.04,0,.06,0l-1.09,1.09H12.294a.39.39,0,0,0,0,.78H16.6l-5.438,5.438a1.668,1.668,0,0,1-2.357,0L1.5,189.969c.02,0,.04,0,.06,0H3.628a.39.39,0,0,0,0-.78H1.56A1.562,1.562,0,0,0,0,190.747v10.379a1.562,1.562,0,0,0,1.56,1.561H18.413a1.562,1.562,0,0,0,1.56-1.561V190.747A1.562,1.562,0,0,0,18.413,189.186ZM.78,201.125V190.747a.774.774,0,0,1,.071-.323l5.43,5.43L.808,201.326A.777.777,0,0,1,.78,201.125Zm17.633.78H1.56a.776.776,0,0,1-.2-.027L6.833,196.4l1.424,1.424a2.449,2.449,0,0,0,3.46,0l1.424-1.424,5.473,5.473A.776.776,0,0,1,18.413,201.905Zm.78-.78a.777.777,0,0,1-.027.2l-5.473-5.473,5.43-5.43a.774.774,0,0,1,.071.323Z" transform="translate(0 -189.186)" fill="#291f6e"/>
      </g>
    </g>
    <g id="Group_2725" data-name="Group 2725" transform="translate(10.266 1.873)">
      <g id="Group_2724" data-name="Group 2724" transform="translate(0 0)">
        <path id="Path_7803" data-name="Path 7803" d="M314.943,246.586h-.006a.39.39,0,1,0,0,.78h.006a.39.39,0,0,0,0-.78Z" transform="translate(-314.547 -246.586)" fill="#291f6e"/>
      </g>
    </g>
  </g>
</svg>
