<svg id="g1167" xmlns="http://www.w3.org/2000/svg" xmlns:xlink="http://www.w3.org/1999/xlink" width="62" height="62" viewBox="0 0 62 62">
  <defs>
    <clipPath id="clip-path">
      <rect id="Rectangle_5836" data-name="Rectangle 5836" width="62" height="62" fill="none" stroke="#174ea0" stroke-width="2"/>
    </clipPath>
  </defs>
  <g id="g1169">
    <g id="Group_2688" data-name="Group 2688">
      <g id="Group_2687" data-name="Group 2687" clip-path="url(#clip-path)">
        <g id="g1171" transform="translate(2.185 0.908)">
          <g id="g1177" transform="translate(18.032 3.948)">
            <path id="path1179" d="M227.167,55.753a2.28,2.28,0,1,1-2.28-2.28A2.28,2.28,0,0,1,227.167,55.753Z" transform="translate(-222.607 -53.473)" fill="none" stroke="#174ea0" stroke-linecap="round" stroke-linejoin="round" stroke-width="2"/>
          </g>
          <g id="g1181" transform="translate(40.869 35.135)">
            <path id="path1183" d="M478.62,399.139a2.28,2.28,0,1,1-2.28-2.28A2.28,2.28,0,0,1,478.62,399.139Z" transform="translate(-474.06 -396.859)" fill="none" stroke="#174ea0" stroke-linecap="round" stroke-linejoin="round" stroke-width="2"/>
          </g>
          <g id="g1185" transform="translate(0 12.68)">
            <path id="path1187" d="M34.605,190.586a28.7,28.7,0,0,0,18.267,6.53q.787,0,1.566-.043l-.749-1.817a2.706,2.706,0,0,1,.931-3.232,2.7,2.7,0,0,0,1.136-2.2,3.6,3.6,0,0,0-.731-2.768l-1.411-1.5a2.7,2.7,0,0,1-.261-3.372l.379-.555a2.7,2.7,0,0,0-1.39-4.092l-4.1-1.345a1.609,1.609,0,0,1-.891-.722l-2.81-4.833a1.612,1.612,0,0,0-2.766-.036l-.672,1.09a1.613,1.613,0,0,1-2.934-1.254l1.455-5.57a1.612,1.612,0,0,1,.822-1.027l2.965-1.526a1.611,1.611,0,0,0,.836-1.783,3.123,3.123,0,0,0-2.522-2.4c-1.514-.316-2.483-.248-3.7-.985l-4.3-2.611a4.975,4.975,0,0,1-2.195-2.862l-.6-2.051a28.814,28.814,0,0,0,1.007,38.5" transform="translate(-24.057 -149.612)" fill="none" stroke="#174ea0" stroke-linecap="round" stroke-linejoin="round" stroke-width="2"/>
          </g>
          <g id="g1189" transform="translate(14.089)">
            <path id="path1191" d="M185.43,10a6.318,6.318,0,0,0-6.235,6.762c.221,3.7,2.678,7.032,4.435,8.964a2.4,2.4,0,0,0,3.551,0c1.841-2.025,4.454-5.587,4.454-9.5A6.228,6.228,0,0,0,185.43,10Z" transform="translate(-179.182 -10.001)" fill="none" stroke="#174ea0" stroke-linecap="round" stroke-linejoin="round" stroke-width="2"/>
          </g>
          <g id="g1193" transform="translate(31.11 12.838)">
            <path id="path1195" d="M386.372,151.36l-1.171,2.082a2.812,2.812,0,0,1-2.226,1.425,2.811,2.811,0,0,0-2.252,1.472l-1.073,2a2.812,2.812,0,0,1-2.678,1.475c-.67-.045-.8-.066-1.115-.066a5.218,5.218,0,0,0-3.845,1.69c-1.958,2.138-1.017,4.407-2.629,6.548l-2.445,3.262a1.7,1.7,0,0,0,.362,2.4l2.119,1.536a1.7,1.7,0,0,0,1.426.269c.694-.173,1.231-.313,1.658-.427a6.215,6.215,0,0,1,12.363.915,9.592,9.592,0,0,1-.247,2.127l.065.05,5.581,4.292a28.838,28.838,0,0,0-3.895-31.046Z" transform="translate(-366.6 -151.36)" fill="none" stroke="#174ea0" stroke-linecap="round" stroke-linejoin="round" stroke-width="2"/>
          </g>
          <g id="g1197" transform="translate(6.882 2.552)">
            <path id="path1199" d="M133.377,40.535A28.711,28.711,0,0,0,121.764,38.1a29.131,29.131,0,0,0-3.34.193,6.2,6.2,0,0,1,1.065,3.484c0,3.914-2.613,7.477-4.454,9.5a2.4,2.4,0,0,1-3.551,0c-1.757-1.932-4.214-5.264-4.435-8.964,0-.057,0-.113-.006-.169a28.959,28.959,0,0,0-7.213,6.085h0l.6,2.051a4.975,4.975,0,0,0,2.195,2.862l4.3,2.611c1.213.737,2.182.669,3.7.985a3.122,3.122,0,0,1,2.522,2.4,1.611,1.611,0,0,1-.836,1.784l-2.965,1.526a1.612,1.612,0,0,0-.822,1.028l-1.455,5.569A1.613,1.613,0,0,0,110,70.3l.672-1.09a1.612,1.612,0,0,1,2.766.036l2.81,4.833a1.611,1.611,0,0,0,.891.722l4.1,1.345a2.7,2.7,0,0,1,1.39,4.092l-.379.555a2.7,2.7,0,0,0,.261,3.372l1.411,1.5a3.6,3.6,0,0,1,.731,2.768,2.7,2.7,0,0,1-1.136,2.2,2.707,2.707,0,0,0-.931,3.232l.749,1.817a28.819,28.819,0,0,0,24.4-16.257l-5.581-4.292-.065-.05a17.389,17.389,0,0,1-4.207,7.374,2.4,2.4,0,0,1-3.551,0c-1.757-1.933-4.214-5.264-4.435-8.964a6.491,6.491,0,0,1,.077-1.449c-.427.114-.964.254-1.658.426a1.7,1.7,0,0,1-1.426-.269l-2.119-1.536a1.7,1.7,0,0,1-.362-2.4l2.445-3.262c1.612-2.142.671-4.41,2.629-6.548a5.217,5.217,0,0,1,3.845-1.69c.319,0,.445.021,1.115.066a2.812,2.812,0,0,0,2.678-1.475l1.072-2a2.81,2.81,0,0,1,2.252-1.472,2.813,2.813,0,0,0,2.226-1.425l1.171-2.082a28.947,28.947,0,0,0-7.08-6.085" transform="translate(-99.83 -38.098)" fill="none" stroke="#174ea0" stroke-linecap="round" stroke-linejoin="round" stroke-width="2"/>
          </g>
          <g id="g1201" transform="translate(36.925 31.186)">
            <path id="path1203" d="M436.882,353.388a6.318,6.318,0,0,0-6.236,6.762c.221,3.7,2.678,7.032,4.435,8.964a2.4,2.4,0,0,0,3.551,0c1.841-2.025,4.454-5.587,4.454-9.5A6.228,6.228,0,0,0,436.882,353.388Z" transform="translate(-430.635 -353.388)" fill="none" stroke="#174ea0" stroke-linecap="round" stroke-linejoin="round" stroke-width="2"/>
          </g>
        </g>
      </g>
    </g>
  </g>
</svg>
