<svg id="Group_2712" data-name="Group 2712" xmlns="http://www.w3.org/2000/svg" width="21.939" height="21.938" viewBox="0 0 21.939 21.938">
  <path id="Path_7722" data-name="Path 7722" d="M419.578,369.455c-.1,0-.209-.006-.315-.006l-.165,0a8.311,8.311,0,0,0,.165,16.62h.08a8.311,8.311,0,0,0,.235-16.615Zm6.076,4.74c.041.073.08.146.118.219l-.233.094a18.9,18.9,0,0,1-3.291.987c-.082.016-.165.031-.247.046l-.087-.237c-.712-1.914-1.514-3.629-1.982-4.583-.046-.095-.089-.181-.129-.26.1.007.194.016.29.027a7.334,7.334,0,0,1,5.561,3.707Zm-12.781,7.129c-.041-.073-.08-.146-.118-.219l.233-.094a20.007,20.007,0,0,1,2.063-.7c.087-.024.172-.046.258-.067-.012.089-.022.178-.031.265a8.967,8.967,0,0,0-.054,1,5.233,5.233,0,0,0,.5,2.372,3.455,3.455,0,0,0,.249.419c-.148-.075-.293-.155-.435-.238a7.378,7.378,0,0,1-2.669-2.736Zm10.259,2.646c-.142.088-.287.173-.434.251a3.817,3.817,0,0,0,.243-.424,4.925,4.925,0,0,0,.438-2.287,8.081,8.081,0,0,0-.068-.9q-.519-.139-1.031-.244a8.443,8.443,0,0,1,.107,1.157,3.609,3.609,0,0,1-.558,2.212,3.286,3.286,0,0,1-1,.918,2.957,2.957,0,0,1-1.494.424h-.048a2.925,2.925,0,0,1-1.424-.387,3.454,3.454,0,0,1-1.018-.881,3.811,3.811,0,0,1-.631-2.307,8.893,8.893,0,0,1,.088-1.231c.012-.087.025-.174.038-.261.054-.343.124-.695.207-1.051q.03-.131.063-.262c.147-.594.312-1.092.513-1.691-.328-.044-.657-.1-.988-.159a21.183,21.183,0,0,0-.59,2.061c-.02.09-.039.179-.058.269l-.265.063a20.838,20.838,0,0,0-2.633.859l-.231.094c-.027-.078-.054-.157-.079-.236a7.324,7.324,0,0,1,0-4.4c.025-.079.052-.157.079-.236l.231.094a20.025,20.025,0,0,0,3.4,1.033l.244.049c.331.063.661.115.99.158l.249.032a15.755,15.755,0,0,0,1.791.1,14.534,14.534,0,0,0,1.752-.107c-.111-.325-.228-.648-.347-.967a14.048,14.048,0,0,1-2.841,0c-.085-.008-.168-.016-.253-.026-.332-.037-.666-.087-1-.147l-.247-.045a18.74,18.74,0,0,1-3.338-1l-.233-.094c.038-.074.078-.147.118-.219a7.33,7.33,0,0,1,5.691-3.721c.1-.009.193-.016.291-.022-.041.078-.086.166-.134.259a47.631,47.631,0,0,0-1.976,4.519q.5.089,1,.144c.567-1.461,1.109-2.713,1.569-3.644.443.933,1.043,2.265,1.6,3.722l.09.239c.117.317.233.638.343.962.027.08.054.16.08.24.2.6.382,1.132.533,1.73q.531.089,1.067.214c-.164-.719-.375-1.376-.613-2.106-.026-.079-.052-.158-.078-.238.081-.015.163-.033.244-.05a20.107,20.107,0,0,0,3.356-1.024l.231-.094c.027.078.054.157.079.236a7.326,7.326,0,0,1,0,4.4c-.025.079-.052.158-.079.236l0,.007c-1.323-.494-2.341-.829-2.811-.948-.13-.033-.266-.065-.266-.065q-.534-.127-1.062-.219c-.087-.016-.176-.029-.263-.043a15.359,15.359,0,0,0-4.866-.007c-.085.355-.155.7-.211,1.045a14.622,14.622,0,0,1,5.3.009c.086.015.173.031.259.048q.518.1,1.039.24l.26.069c.752.207,2.019.7,2.2.767-.033.092-.063.169-.087.226A6.526,6.526,0,0,1,423.132,383.97Z" transform="translate(-408.294 -366.791)" fill="#716d88" fill-rule="evenodd"/>
  <path id="Path_7723" data-name="Path 7723" d="M582,715.653h0Z" transform="translate(-570.998 -696.124)" fill="#716d88" fill-rule="evenodd"/>
  <path id="Path_7724" data-name="Path 7724" d="M367.369,314.9a10.969,10.969,0,1,0,10.97,10.969,10.981,10.981,0,0,0-10.97-10.969Zm0,20.946a9.977,9.977,0,1,1,9.977-9.978A9.988,9.988,0,0,1,367.369,335.842Z" transform="translate(-356.4 -314.896)" fill="#716d88" fill-rule="evenodd"/>
</svg>
