<svg xmlns="http://www.w3.org/2000/svg" width="63.361" height="63.363" viewBox="0 0 63.361 63.363">
  <g id="Group_2715" data-name="Group 2715" transform="translate(-0.008 -90)">
    <g id="Group_2703" data-name="Group 2703" transform="translate(8.423 145.937)">
      <g id="Group_2702" data-name="Group 2702">
        <path id="Path_7795" data-name="Path 7795" d="M83.4,630.645a1.236,1.236,0,1,0,.363.875A1.246,1.246,0,0,0,83.4,630.645Z" transform="translate(-81.285 -630.282)" fill="#174ea0"/>
      </g>
    </g>
    <g id="Group_2705" data-name="Group 2705" transform="translate(56.001 112.277)">
      <g id="Group_2704" data-name="Group 2704">
        <path id="Path_7796" data-name="Path 7796" d="M542.936,305.529a1.234,1.234,0,1,0,.364.875A1.244,1.244,0,0,0,542.936,305.529Z" transform="translate(-540.824 -305.166)" fill="#174ea0"/>
      </g>
    </g>
    <g id="Group_2707" data-name="Group 2707" transform="translate(0.008 90)">
      <g id="Group_2706" data-name="Group 2706" transform="translate(0 0)">
        <path id="Path_7797" data-name="Path 7797" d="M63.006,90.362A1.239,1.239,0,0,0,62.131,90L31.688,90a1.238,1.238,0,0,0-1.237,1.238v3.539L18.72,97.921a1.237,1.237,0,0,0-.875,1.516l6.08,22.689-5.259,5.259a3.711,3.711,0,0,0-3.065-1.62H3.721a3.717,3.717,0,0,0-3.713,3.713V149.65a3.717,3.717,0,0,0,3.713,3.713H15.6a3.718,3.718,0,0,0,3.6-2.819l1.472,1.283a6.235,6.235,0,0,0,4.1,1.536H62.131a1.238,1.238,0,0,0,1.238-1.238V91.238A1.239,1.239,0,0,0,63.006,90.362ZM16.838,149.65a1.239,1.239,0,0,1-1.238,1.238H3.72a1.239,1.239,0,0,1-1.238-1.238V129.478a1.239,1.239,0,0,1,1.238-1.238h4.7V142.5a1.238,1.238,0,0,0,2.475,0V128.241h4.7a1.239,1.239,0,0,1,1.238,1.238V149.65Zm3.718-49.658,9.895-2.651v4.586l-.829.222a1.238,1.238,0,0,0-.875,1.516,3.336,3.336,0,0,1-2.356,4.081,1.238,1.238,0,0,0-.874,1.518l4.824,17.863H27.856l-1.28-5.008a1.237,1.237,0,0,0-.207-.434Zm9.895,7.61v10.443l-2.257-8.358A5.8,5.8,0,0,0,30.451,107.6ZM48.23,150.887H24.774a3.76,3.76,0,0,1-2.472-.926l-2.989-2.606V130.238l5.4-5.4.98,3.834a1.237,1.237,0,0,0,1.2.931l24.331,0a1.733,1.733,0,0,1,0,3.465H38.758a1.238,1.238,0,1,0,0,2.475H55.1a1.733,1.733,0,1,1,0,3.465H38.758a1.238,1.238,0,0,0,0,2.475H52.451a1.733,1.733,0,0,1,0,3.465H38.758a1.238,1.238,0,1,0,0,2.475H48.23a1.732,1.732,0,1,1,0,3.465Zm12.664,0H52.063a4.193,4.193,0,0,0,0-3.465h.388a4.2,4.2,0,0,0,3.761-6.091,4.2,4.2,0,0,0,2.264-6.564V119.083a1.238,1.238,0,1,0-2.475,0v14.082a4.212,4.212,0,0,0-.9-.1h-.041a4.2,4.2,0,0,0-3.833-5.94H49.236a5.923,5.923,0,1,0-4.653,0H37.818V103.6a5.826,5.826,0,0,0,4.437-4.437h9.309A5.826,5.826,0,0,0,56,103.6v3.848a1.238,1.238,0,0,0,2.475,0v-4.952a1.238,1.238,0,0,0-1.238-1.238,3.336,3.336,0,0,1-3.332-3.332,1.238,1.238,0,0,0-1.238-1.238H41.15a1.238,1.238,0,0,0-1.238,1.238,3.336,3.336,0,0,1-3.332,3.332,1.238,1.238,0,0,0-1.238,1.238v24.636H32.926V92.476H60.894ZM46.91,125.129a3.448,3.448,0,1,1,3.447-3.448A3.451,3.451,0,0,1,46.91,125.129Z" transform="translate(-0.008 -90)" fill="#174ea0"/>
      </g>
    </g>
  </g>
</svg>
