<svg xmlns="http://www.w3.org/2000/svg" width="65.242" height="62" viewBox="0 0 65.242 62">
  <path id="Path_7791" data-name="Path 7791" d="M79.565,84.233a4.344,4.344,0,0,0-2.386-2.507V51.284A3.294,3.294,0,0,0,73.895,48H38.865a3.294,3.294,0,0,0-3.284,3.284V81.968a22.175,22.175,0,0,0-3.547,2.025L28.6,86.4l-1.259-1.8a1.1,1.1,0,0,0-1.522-.274L15.056,91.863a1.113,1.113,0,0,0-.274,1.532l11.308,16.135a1.1,1.1,0,0,0,1.522.274l10.761-7.531a1.116,1.116,0,0,0,.274-1.533l-.624-.887a9.742,9.742,0,0,1,7.225-1.543l1.949.328A14.231,14.231,0,0,0,54.541,98l22.408-8.155a4.379,4.379,0,0,0,2.618-5.612v0ZM61.853,50.189H73.895a1.1,1.1,0,0,1,1.095,1.095v3.284H61.853Zm-8.757,0h6.568v9.4l-2.507-2.518a1.1,1.1,0,0,0-1.554,0L53.1,59.593ZM37.771,51.284a1.1,1.1,0,0,1,1.095-1.095H50.907v4.379H37.771Zm0,5.473H50.907v5.473a1.08,1.08,0,0,0,.679,1.007,1.1,1.1,0,0,0,1.193-.23l3.6-3.612,3.6,3.612a1.1,1.1,0,0,0,.777.317.916.916,0,0,0,.416-.088,1.08,1.08,0,0,0,.679-1.007V56.757H74.989V81.4a4.208,4.208,0,0,0-1.029.219l-3.875,1.412h-7.7a4.239,4.239,0,0,0-2.025-.952l-11-1.938a22.98,22.98,0,0,0-10.662.635l-.2.066c-.252.066-.493.164-.733.252Zm-10.52,50.628L17.213,93.035l8.965-6.283L36.216,101.1ZM77.617,86.116A2.19,2.19,0,0,1,76.2,87.791L53.8,95.946a12.028,12.028,0,0,1-6.218.536l-1.959-.328a11.913,11.913,0,0,0-8.856,1.9l-6.907-9.874,3.437-2.4a20.362,20.362,0,0,1,5.813-2.846l.2-.055a21.065,21.065,0,0,1,9.688-.6l10.99,1.938a2.242,2.242,0,0,1,1.423.908,2.205,2.205,0,0,1,.361.942,1.937,1.937,0,0,1-.055.92A2.2,2.2,0,0,1,59.2,88.546L47.371,86.456,47,88.6l11.822,2.091a3.744,3.744,0,0,0,.777.077,4.4,4.4,0,0,0,4.2-3.12l10.9-3.974a2.189,2.189,0,0,1,2.8,1.313,2.08,2.08,0,0,1,.109,1.128Z" transform="translate(-14.59 -48)" fill="#174ea0"/>
</svg>
