<svg id="Group_2682" data-name="Group 2682" xmlns="http://www.w3.org/2000/svg" width="486.663" height="486.64" viewBox="0 0 486.663 486.64">
  <path id="Path_7722" data-name="Path 7722" d="M602.294,369.591c-2.323-.082-4.644-.142-6.987-.142-1.213,0-2.443.019-3.656.04-99.962,1.959-180.7,83.886-180.7,184.313,0,87.845,61.754,161.515,144.107,179.931a184.944,184.944,0,0,0,40.248,4.443h1.05c.243,0,.485-.019.728-.019a184,184,0,0,0,43.378-5.574c79.888-20.194,139.2-92.671,139.2-178.76.019-99.335-78.922-180.537-177.368-184.232ZM737.071,474.742c.909,1.615,1.777,3.231,2.626,4.865-1.717.708-3.453,1.394-5.17,2.081a419.467,419.467,0,0,1-73,21.891c-1.818.363-3.656.686-5.474,1.01-.646-1.758-1.292-3.514-1.939-5.251-15.791-42.468-33.582-80.494-43.962-101.658-1.029-2.1-1.98-4.018-2.868-5.774,2.161.161,4.3.362,6.441.605a162.682,162.682,0,0,1,123.347,82.231ZM453.562,632.883c-.908-1.616-1.777-3.23-2.625-4.866,1.717-.707,3.452-1.393,5.17-2.081a444.078,444.078,0,0,1,45.76-15.449c1.92-.524,3.816-1.01,5.715-1.494-.263,1.98-.483,3.938-.686,5.876a198.91,198.91,0,0,0-1.191,22.072c.081,20.579,3.837,38.208,11.189,52.626a76.961,76.961,0,0,0,5.533,9.289c-3.292-1.656-6.5-3.433-9.654-5.29a163.662,163.662,0,0,1-59.21-60.684Zm227.57,58.685c-3.15,1.96-6.361,3.836-9.633,5.573a85,85,0,0,0,5.392-9.409c6.888-14.075,10.017-30.514,9.713-50.727a179.3,179.3,0,0,0-1.513-19.953q-11.51-3.092-22.881-5.412a187.4,187.4,0,0,1,2.382,25.666c.3,21-3.635,36.593-12.379,49.073a72.881,72.881,0,0,1-22.132,20.355,65.587,65.587,0,0,1-33.14,9.411c-.363,0-.706.02-1.069.02a64.875,64.875,0,0,1-31.585-8.582,76.646,76.646,0,0,1-22.576-19.547c-9.21-12.279-13.915-29.486-14-51.173a197.181,197.181,0,0,1,1.959-27.3c.263-1.92.545-3.857.849-5.8,1.191-7.613,2.745-15.409,4.583-23.3q.668-2.909,1.394-5.817c3.271-13.187,6.927-24.214,11.389-37.5-7.268-.969-14.579-2.12-21.909-3.532-5.272,16.033-9.532,29.846-13.086,45.72-.445,2-.869,3.978-1.293,5.957-1.958.466-3.918.909-5.876,1.393a462.293,462.293,0,0,0-58.4,19.064c-1.7.686-3.412,1.372-5.129,2.079-.605-1.736-1.191-3.473-1.757-5.229a162.466,162.466,0,0,1,0-97.541c.546-1.755,1.151-3.493,1.757-5.229,1.717.706,3.412,1.393,5.129,2.078a444.226,444.226,0,0,0,75.366,22.921c1.8.363,3.615.747,5.413,1.091,7.35,1.394,14.661,2.545,21.95,3.494,1.838.243,3.675.485,5.513.707a349.6,349.6,0,0,0,39.723,2.261,322.364,322.364,0,0,0,38.854-2.382c-2.464-7.21-5.049-14.378-7.694-21.447a311.56,311.56,0,0,1-63.027.1c-1.878-.183-3.735-.344-5.613-.567-7.372-.827-14.783-1.937-22.195-3.271-1.817-.323-3.655-.647-5.472-.989a415.723,415.723,0,0,1-74.054-22.112c-1.717-.687-3.432-1.373-5.169-2.081.847-1.635,1.737-3.271,2.625-4.865a162.61,162.61,0,0,1,126.235-82.535c2.141-.2,4.281-.363,6.463-.484-.909,1.737-1.9,3.675-2.968,5.756-10.845,21.164-27.585,57.493-43.842,100.245q11.178,1.967,22.276,3.189c12.581-32.412,24.6-60.178,34.813-80.837,9.835,20.7,23.144,50.244,35.382,82.555.667,1.757,1.333,3.513,2,5.292,2.605,7.026,5.169,14.155,7.613,21.343.608,1.777,1.193,3.555,1.777,5.331,4.444,13.409,8.483,25.1,11.814,38.371q11.782,1.968,23.669,4.745c-3.636-15.952-8.321-30.513-13.591-46.71-.567-1.755-1.152-3.513-1.737-5.271,1.8-.342,3.615-.728,5.411-1.111a446.047,446.047,0,0,0,74.438-22.719c1.7-.687,3.412-1.373,5.129-2.08.605,1.737,1.19,3.474,1.757,5.232a162.485,162.485,0,0,1,0,97.538c-.546,1.758-1.151,3.493-1.757,5.23-.021.062-.041.1-.06.161-29.343-10.965-51.92-18.4-62.361-21.022-2.888-.728-5.9-1.433-5.9-1.433q-11.844-2.818-23.567-4.866c-1.938-.344-3.9-.648-5.835-.95a340.716,340.716,0,0,0-107.939-.161c-1.88,7.876-3.434,15.63-4.686,23.183a324.357,324.357,0,0,1,117.471.2c1.918.343,3.837.685,5.755,1.069q11.483,2.27,23.042,5.33s3.03.789,5.757,1.535c16.68,4.585,44.79,15.429,48.911,17.023-.728,2.041-1.395,3.757-1.939,5.009C737.071,632.883,723.582,665.032,681.132,691.567Z" transform="translate(-351.985 -310.481)" fill-rule="evenodd"/>
  <path id="Path_7723" data-name="Path 7723" d="M582.233,715.672h.3c.243,0,.484-.021.727-.021-.425,0-.847.021-1.272.021A.949.949,0,0,1,582.233,715.672Z" transform="translate(-338.144 -282.465)" fill-rule="evenodd"/>
  <path id="Path_7724" data-name="Path 7724" d="M599.721,314.9C465.55,314.9,356.4,424.047,356.4,558.216s109.15,243.32,243.321,243.32,243.342-109.148,243.342-243.32S733.912,314.9,599.721,314.9Zm0,464.65c-122.036,0-221.31-99.275-221.31-221.309s99.275-221.329,221.31-221.329S821.03,436.182,821.03,558.216,721.776,779.546,599.721,779.546Z" transform="translate(-356.4 -314.896)" fill-rule="evenodd"/>
</svg>
